<svg xmlns="http://www.w3.org/2000/svg" width="27.338" height="31.243" viewBox="0 0 27.338 31.243">
  <path id="Icon_awesome-bell" data-name="Icon awesome-bell" d="M13.669,31.243a3.9,3.9,0,0,0,3.9-3.905H9.765A3.9,3.9,0,0,0,13.669,31.243Zm13.144-9.136c-1.179-1.267-3.385-3.173-3.385-9.415a9.636,9.636,0,0,0-7.807-9.468V1.953a1.951,1.951,0,1,0-3.9,0V3.224A9.636,9.636,0,0,0,3.91,12.693c0,6.243-2.206,8.148-3.385,9.415A1.907,1.907,0,0,0,0,23.433a1.954,1.954,0,0,0,1.959,1.953h23.42a1.954,1.954,0,0,0,1.959-1.953,1.906,1.906,0,0,0-.525-1.325Z" transform="translate(0)" fill="#fff"/>
</svg>
